<svg width="42" height="42" viewBox="0 0 42 42" fill="none" xmlns="http://www.w3.org/2000/svg">
<rect width="42" height="42" rx="21" fill="white"/>
<path fill-rule="evenodd" clip-rule="evenodd" d="M28 12.1716C27.7599 12.1716 27.5222 12.2189 27.3003 12.3108C27.0785 12.4026 26.8769 12.5373 26.7071 12.7071L13.3949 26.0193L12.4252 29.5748L15.9807 28.6051L29.2929 15.2929C29.4627 15.1231 29.5974 14.9215 29.6893 14.6997C29.7812 14.4779 29.8284 14.2401 29.8284 14C29.8284 13.7599 29.7812 13.5221 29.6893 13.3003C29.5974 13.0785 29.4627 12.8769 29.2929 12.7071C29.1231 12.5373 28.9216 12.4026 28.6997 12.3108C28.4779 12.2189 28.2401 12.1716 28 12.1716ZM26.5349 10.463C26.9994 10.2706 27.4973 10.1716 28 10.1716C28.5028 10.1716 29.0006 10.2706 29.4651 10.463C29.9296 10.6554 30.3516 10.9374 30.7071 11.2929C31.0626 11.6484 31.3446 12.0704 31.537 12.5349C31.7294 12.9994 31.8284 13.4972 31.8284 14C31.8284 14.5028 31.7294 15.0006 31.537 15.4651C31.3446 15.9296 31.0626 16.3516 30.7071 16.7071L17.2071 30.2071C17.0841 30.3302 16.931 30.419 16.7631 30.4648L11.2631 31.9648C10.9169 32.0592 10.5467 31.9609 10.2929 31.7071C10.0392 31.4534 9.94084 31.0831 10.0353 30.7369L11.5353 25.2369C11.581 25.069 11.6699 24.9159 11.7929 24.7929L25.2929 11.2929C25.6484 10.9374 26.0705 10.6554 26.5349 10.463Z" fill="black"/>
</svg>
